# xmcd CD database file
#
# Track frame offsets:
#	150
#	15743
#	28755
#	49046
#	63725
#	78635
#	91124
#	121276
#	141378
#	169390
#
# Disc length: 2624 seconds
#
# Revision: 1
# Processed by: cddbd v1.5.2PL0 Copyright (c) Steve Scherf et al.
# Submitted via: CDex 1.70beta2
#
DISCID=890a3e0a
DTITLE=D.D.K - Dika Daltong Blues
DYEAR=2008
DGENRE=Blues
TTITLE0=Green River
TTITLE1=Who´ ll stop the rain 
TTITLE2=Breeze
TTITLE3=El souffle de la ermita
TTITLE4=No Way Pedro No Way Jose
TTITLE5=Have you ever seen the rain (Sonia)
TTITLE6=Mustang Sally
TTITLE7=Nadine
TTITLE8=Unchain my heart
TTITLE9=Knocking on Heavens Door
EXTD=YEAR: 2008
EXTT0=
EXTT1=
EXTT2=
EXTT3=
EXTT4=
EXTT5=
EXTT6=
EXTT7=
EXTT8=
EXTT9=
PLAYORDER=
